<svg width="11.53333" height="20" viewBox="0 0 272 472" xmlns="http://www.w3.org/2000/svg"><path d="m93.56392 88.904c1.674 5.447 7.44 8.503 12.886 6.855a-10.309 10.309 0 0 0 6.829-12.886c-1.648-5.447-7.413-8.503-12.86-6.829-5.474 1.647-8.503 7.413-6.855 12.86m10.786 35.286c1.648 5.447 7.44 8.503 12.86 6.856 5.474-1.674 8.53-7.44 6.855-12.887-1.647-5.447-7.413-8.503-12.86-6.855-5.473 1.674-8.529 7.44-6.855 12.886m10.79 35.285c1.647 5.447 7.44 8.529 12.86 6.855 5.473-1.674 8.529-7.44 6.855-12.887-1.647-5.447-7.413-8.529-12.86-6.855-5.474 1.674-8.53 7.44-6.855 12.887m11.212 36.667c1.648 5.447 7.414 8.502 12.86 6.855 5.474-1.674 8.53-7.44 6.856-12.887-1.648-5.447-7.44-8.529-12.86-6.855-5.474 1.674-8.53 7.44-6.856 12.887m-58.082-86.194-45.382 13.87-21.97399982 6.695c-.824-8.529-1.116-17.138-.77-25.693l10.65399982-3.242 50.218-15.384c3.03-.903 4.73-4.145 3.8-7.174-.904-3.029-4.119-4.73-7.174-3.826l-52.3699998 16.022-4.172 1.275a-133.173 133.173 0 0 1 1.01-7.28c.08-.558.16-1.09.266-1.62 4.41-24.87 19.0499998-45.728 38.7119998-60.369l8.901 29.148c.877 2.87 3.747 4.81 6.696 4.225 3.375-.691 5.367-4.119 4.384-7.334l-9.99-32.681c7.44-4.41 15.384-8.024 23.62-10.681l10.948 35.843c.983 3.215 4.57 4.969 7.732 3.613 2.79-1.169 4.065-4.357 3.188-7.253l-10.76-35.259c8.367-1.86 17.163-2.816 26.009-2.843l9.433 30.875a-5.743 5.743 0 0 0 7.174 3.8c3.029-.93 4.756-4.146 3.826-7.175l-8.236-26.915c22.399 2.178 44.24 10.548 60.022 26.118a-121.62 121.62 0 0 1 7.148 7.679l-48.836 14.932c-2.87.877-4.81 3.747-4.225 6.696.69 3.375 4.118 5.367 7.333 4.384l53.38-16.314c5.022 6.935 9.565 14.268 13.763 21.735l-59.888 18.305c-3.029.93-4.73 4.145-3.826 7.174a-5.775 5.775 0 0 0 7.2 3.827l61.83-18.892c2.311 4.969 5.393 12.116 8.874 21.363.186.558.399 1.089.611 1.674l-63.822 19.502c-2.896.877-4.809 3.773-4.198 6.722.691 3.375 4.092 5.314 7.307 4.358l64.566-19.742a-491.939 491.939 0 0 1 3.374 10.416c.93 2.976 1.834 6.058 2.764 9.246.372 1.355.77 2.684 1.142 4.039l-64.592 19.768c-3.03.904-4.73 4.145-3.8 7.174.93 3.03 4.145 4.756 7.174 3.826l64.167-19.635a-472.162 472.162 0 0 1 3.64 15.57-311.658 311.658 0 0 1 1.834 8.715l-62.148 18.998c-2.87.877-4.783 3.746-4.198 6.695.69 3.375 4.092 5.341 7.333 4.385l61.165-18.706c.372 2.046.717 4.118 1.09 6.218a-528.284 528.284 0 0 1 2.71 18.306v.08c-.08 1.435-.054 2.418.398 3.109.425.584 1.143.983 2.365 1.302 8.423 2.046 13.763 7.413 15.33 16.101 1.143 6.244-1.407 11.372-7.014 14.375-1.142.611-2.418 1.302-3.693 1.594-1.674.399-2.046.452-2.444.213a-10.135 10.135 0 0 0 -1.834-2.923c-1.461-1.727-4.25-3.8-9.007-3.8-1.541 0-2.976.16-4.225.293-.319.053-.664.08-.983.106-2.79-.106-5.686-.053-8.476-.027-4.65-.186-9.352-.451-13.923-.744-7.572-.451-15.384-.93-23.169-.93-4.145 0-7.944.133-11.584.399-2.206.16-4.385.372-6.59.558-2.55.24-5.181.478-7.732.664-2.125.133-4.304.213-6.483.213-11.93 0-24.205-2.126-35.524-6.191-8.37-2.976-14.8-6.377-19.476-10.31l-.612-.61c-2.63-2.684-5.818-10.017-10.282-10.23-.585-.16-1.196-.213-1.807-.213a-8.37 8.37 0 0 0 -1.993.266c-.93.24-1.807.638-2.577 1.196-2.471 1.54-3.959 4.171-4.198 7.386l-.478 6.457c-.186 2.763-.399 5.527-.612 8.316-.212 2.445-.398 4.863-.584 7.307a-9.18 9.18 0 0 0 .744 4.517l-.16 3.507c-.983 22.559-.425 45.223 4.996 67.223 2.816 11.505 7.04 22.665 12.886 32.947 10.92 19.29 27.766 35.02 48.225 43.336.505.213 1.01.426 1.515.612a-51.72 51.72 0 0 0 2.843 1.036c.265.106.531.186.797.292l.372.106a-1.335 1.335 0 0 0 .345.133-77.91 77.91 0 0 0 4.438 1.329c.398.106.797.212 1.169.345a-3.384 3.384 0 0 1 .956.532c.797.637 1.196 1.647 1.541 2.603l.08.266.027.053c2.364 6.59 4.596 12.7 8.555 18.334.585.823 1.222 1.62 1.86 2.444 4.942 6.016 10.947 9.494 17.297 10.041 9.114.8 17.537-4.594 22.558-14.478a-44.14 44.14 0 0 0 3.853-10.602c1.116-4.942-1.169-11.903 2.763-15.915 2.312-2.312 6.935-3.401 9.805-4.969 6.802-3.72 13.205-8.157 19.024-13.258 3.428-2.976 7.573-6.829 6.802-11.85 7.254 2.816 13.338 11.026 13.046 18.519-.452 11.106-11.69 19.316-23.515 17.138-.318 2.418-1.727 4.384-2.763 6.51-3.295 6.775-4.703 13.842-4.33 21.256.052.93.132 1.86.212 2.79.664 5.954 2.125 11.728 3.56 17.525 1.408 5.522 1.116 6.281-3.693 9.494-1.01.68-2.02 1.347-3.082 1.974-.478.308-.957.587-1.435.866a-87.09 87.09 0 0 1 -4.889 2.668c-.638.332-1.302.64-1.94.959-.77.375-1.567.733-2.338 1.081-.558.24-1.09.465-1.62.694-.665.292-1.33.558-1.993.826a-86.974 86.974 0 0 1 -4.039 1.533c-1.382.481-2.763.946-4.145 1.387-.77.253-1.568.492-2.365.72-.584.173-1.195.346-1.806.518a-70.05 70.05 0 0 1 -2.1.574c-35.02 9.255-70.225 9.241-105.51 1.587-10.176-2.214-20.087-5.44-28.988-11.08-2.87-1.812-5.952-3.56-7.36-6.959-.478-.027-.585-.348-.558-.747-.027-.281-.027-.534-.027-.8-.531-.507-.744-1.107-.877-1.748-.132-.613-.106-1.278-.159-1.905-.558-7.88-1.196-15.748-1.514-23.605-.984-25.321-1.595-50.67-2.79-75.99-.053-1.409-.133-2.844-.24-4.252-.106-2.046-.239-4.092-.398-6.111-.16-1.887-.319-3.773-.505-5.606-.08-1.01-.186-2.02-.292-3.003-.106-1.142-.24-2.258-.372-3.4-.106-.771-.186-1.542-.292-2.34-.054-.53-.133-1.062-.186-1.593a-233.8 233.8 0 0 0 -1.276-8.636c-.16-1.036-.345-2.072-.505-3.135l-.558-3.109c-.186-1.036-.372-2.072-.584-3.108-.213-1.037-.425-2.073-.638-3.136a-256.5 256.5 0 0 0 -1.355-6.164c-.239-1.036-.505-2.072-.744-3.082-.239-1.036-.505-2.073-.77-3.082a-231.267 231.267 0 0 0 -1.648-6.138c-.292-1.01-.584-2.02-.903-3.029-1.62-5.5-3.454-10.947-5.474-16.367a-173.102 173.102 0 0 0 -1.833-4.73-186.501 186.501 0 0 0 -3.746-8.927c-4.996-11.24-11.32-21.735-16.74-32.735l42.911-13.126 27.022-8.236c3.215-1.01 4.942-4.517 3.64-7.706-1.142-2.79-4.357-4.118-7.227-3.241l-29.493 9.007-41.556 12.727c-3.055-7.679-5.606-15.703-7.891-23.541l36.56-11.186 35.366-10.814c3.029-.904 4.73-4.119 3.826-7.174-.93-3.056-4.145-4.73-7.2-3.826l-37.837 11.584-33.7169998 10.31a-251.496 251.496 0 0 1 -4.969-24.419l26.2249998-8.024 43.044-13.152c3.055-.93 4.756-4.172 3.826-7.2a-5.743 5.743 0 0 0 -7.174-3.8" fill="#f3a03a"/><path d="m92.95792 271.062c.286 12.168 1.456 24.259 3.952 36.167 3.589 17.265 9.647 33.463 20.411 47.685 4.576 6.059 9.62 11.519 15.73 15.965 2.627-8.008 8.71-13.234 15.341-17.447 15.496-9.88 31.851-11.31 48.621-3.016 4.03 1.976 7.385 4.81 10.375 8.113 1.066 1.144 2.08 2.34 3.12 3.51a-7.424 7.424 0 0 1 .988-.52-9.907 9.907 0 0 1 1.69-.572-19.328 19.328 0 0 1 1.846-.364c.286-.052.598-.104.884-.182 3.38-.884 6.76-2.548 10.634-5.253a-95.37 95.37 0 0 0 2.002-1.43l-.104-.156c-10.166-15.106-16.588-31.695-19.5-49.635-1.95-11.804-1.664-23.583.884-35.283-26.365-.156-56.058-2.834-66.016-3.744l-1.898-.182c-9.75-.858-17.915-2.496-26.521-5.278-.546-.208-1.222-.416-2.054-.65-7.28-2.263-14.82-4.81-20.177-8.19-.546 6.941-.364 13.728-.208 20.462" fill="#7e471b"/><path d="m201.38592 414.159c2.446-11.15 2.626-22.092-.464-32.958-2.575-9.064-7.493-16.454-15.398-21.732-1.57-1.03-3.09-2.137-5.561-2.137 20.11 14.161 20.29 35.636 21.423 56.827zm-67.668-42.485c10.377-14.677 24.667-22.041 42.563-21.397 18.848.695 32.288 12.359 36.82 31.052 2.472 10.171 2.086 20.187-2.78 29.663-6.54 12.874-18.746 14.239-27.887 3.141-5.767-7.03-8.574-15.397-10.582-24.1-.438-1.829-.412-3.889-1.803-5.614-.231.464-.463.696-.463.876.051 1.081.154 2.137.206 3.218-13.312-2.858-25.311-8.522-36.074-16.84" fill="#f3a03a"/><path d="m91.00592 239.53c.442-5.358.833-10.743 1.249-16.128l.442-5.984c.13-1.613.728-2.731 1.821-3.382a-3.013 3.013 0 0 1 .963-.468-2.778 2.778 0 0 1 .65-.078c.78 0 1.535.338 2.03.937a-2.487 2.487 0 0 1 .675 1.82c.13.26.417.625.859 1.12.208.26.442.494.624.754 6.426 8.038 16.65 13.033 26.197 16.415 13.944 4.995 29.37 7.258 44.147 6.27 4.786-.313 9.573-.86 14.36-1.223 18.158-1.353 36.342 1.222 54.474 1.456 2.575.027 4.943-.546 7.492-.546.833 0 3.33 0 4.995 1.951 1.9 2.212 1.665 5.385 1.457 8.455-.104 1.275-.182 2.445-.13 3.46 1.066 15.92-99.662 6.035-110.926 5.047-8.897-.78-16.728-2.238-25.338-5.047-5.463-1.795-26.665-7.44-26.04-14.828m123.531 126.576c.885-.228 1.87-.303 2.73-.53 4.498-1.163 8.54-3.387 12.331-6.04 2.73-1.896 5.358-3.943 8.163-5.737 2.451-1.592 5.383-3.79 8.44-3.79 2.805 0 4.372 2.021 6.924 5.407l.127.152c.682.91 2.754 3.614-.253 6.747-8.895 9.3-19.711 15.314-31.083 21.127-.657.328-1.289.657-2.021.783-1.29.202-2.426-.48-2.881-1.693-1.39-3.867-2.78-7.758-4.17-11.625-.606-1.642-1.213-3.613.809-4.498.278-.126.58-.202.884-.303" fill="#fff"/><path d="m196.05392 428.816c8.193-.027 15.698-5.127 20.376-13.98-4.678 8.853-12.183 13.953-20.376 13.98m-29.6-30.948c-.29-1.004-.555-1.956-.793-2.933a-34.91 34.91 0 0 1 -1.77-.45c.317.132.634.29.925.502.819.635 1.189 1.665 1.532 2.617zm-104.524-55.5c-.053-1.057-.106-2.114-.185-3.171-.106-2.035-.238-4.096-.423-6.131-.132-1.877-.29-3.727-.476-5.603-.105-.978-.185-1.982-.317-2.987-.106-1.136-.211-2.246-.343-3.382-.106-.793-.212-1.56-.291-2.353-.08-.528-.159-1.057-.212-1.585-.37-2.881-.792-5.788-1.242-8.642-.185-1.031-.37-2.088-.528-3.119-.185-1.057-.37-2.088-.555-3.145-.185-1.03-.37-2.061-.608-3.092-.212-1.03-.397-2.088-.608-3.119-.423-2.061-.899-4.149-1.374-6.184l-.714-3.092c-.264-1.03-.528-2.035-.793-3.066a-232.258 232.258 0 0 0 -1.665-6.131c-.264-1.03-.555-2.035-.872-3.04a-258.078 258.078 0 0 0 -5.47-16.358-358.487 358.487 0 0 0 -1.85-4.758c-1.163-2.986-2.432-5.946-3.727-8.906-5.021-11.232-11.338-21.724-16.756-32.745 5.418 11.02 11.735 21.513 16.756 32.745 1.295 2.96 2.564 5.92 3.726 8.906a-352.57 352.57 0 0 1 1.85 4.758-258.078 258.078 0 0 1 5.471 16.359-57.374 57.374 0 0 1 .872 3.039-232.258 232.258 0 0 1 1.665 6.131c.265 1.031.529 2.035.793 3.066l.714 3.092a-233.353 233.353 0 0 1 1.374 6.184c.211 1.031.396 2.088.608 3.119.211 1.03.423 2.061.608 3.092.185 1.057.37 2.088.555 3.145.158 1.03.343 2.088.528 3.119a-323.79 323.79 0 0 1 1.242 8.642c.053.528.133 1.057.212 1.585.08.793.185 1.56.29 2.353a-146.578 146.578 0 0 1 .344 3.382c.132 1.005.212 2.009.317 2.987a-200.12 200.12 0 0 1 .476 5.603-159.197 159.197 0 0 1 .423 6.131-127.51 127.51 0 0 1 .185 3.171" fill="#f3a03a"/><path d="m226.68392 458.939c.37-.161.74-.32 1.137-.494a-92.898 92.898 0 0 0 2.352-1.079c.634-.322 1.295-.629 1.93-.962a-79.083 79.083 0 0 0 4.889-2.666c.502-.28.977-.56 1.453-.867a-75.387 75.387 0 0 0 3.066-1.972c3.25-2.175 4.413-3.213 4.413-5.375 0-1.039-.264-2.331-.713-4.118-1.454-5.798-2.907-11.586-3.568-17.532-.08-.925-.159-1.877-.212-2.802-6.897-5.233-13.848-11.073-20.825-17.416a-43.955 43.955 0 0 1 -3.859 10.598c-.079.158-.158.317-.237.449-.027.053-.053.08-.08.132-4.678 8.854-12.183 13.954-20.376 13.98h-.106c-.581 0-1.163-.026-1.77-.079-6.343-.555-12.343-4.017-17.285-10.042a-50.14 50.14 0 0 1 -1.85-2.432c-4.281-5.92-6.818-12.315-8.562-18.341l-.027-.053-.106-.264c-.343-.952-.713-1.982-1.532-2.617-.291-.211-.608-.37-.925-.502-12.527-3.303-24.103-9.038-34.569-17.125l-5.444-4.202.185-.265c-4.281-3.726-8.325-8.166-12.474-13.637-10.387-13.716-17.496-30.26-21.724-50.557-2.458-11.761-3.78-24.024-4.07-37.45l-.027-.634c-.185-7.558-.343-15.355.502-23.52l.159-3.49a-9.09 9.09 0 0 1 -.766-3.7c0-.264 0-.528.026-.819.211-2.431.396-4.889.581-7.32-6.845-10.889-13.875-22.227-20.429-33.115l-42.92 13.108c5.418 11.02 11.735 21.513 16.756 32.745 1.295 2.96 2.564 5.92 3.726 8.906a-352.57 352.57 0 0 1 1.85 4.758-258.078 258.078 0 0 1 5.471 16.359-57.374 57.374 0 0 1 .872 3.039-232.258 232.258 0 0 1 1.665 6.131c.265 1.031.529 2.035.793 3.066l.714 3.092a-233.353 233.353 0 0 1 1.374 6.184c.211 1.031.396 2.088.608 3.119a-63.834 63.834 0 0 1 .608 3.092c.185 1.057.37 2.088.555 3.145.158 1.03.343 2.088.528 3.119.45 2.854.872 5.761 1.242 8.642.053.528.133 1.057.212 1.585.08.793.185 1.56.29 2.353a-146.578 146.578 0 0 1 .344 3.382c.132 1.005.212 2.009.317 2.987a-200.12 200.12 0 0 1 .476 5.603-159.197 159.197 0 0 1 .423 6.131-127.51 127.51 0 0 1 .185 3.171c42.761 54.205 99.714 105.344 167 115.57-.766.348-1.506.681-2.246 1m-154.69-5.858c-1.7-1.255-3.217-2.72-4.106-4.838.889 2.092 2.406 3.583 4.106 4.838m-4.284-4.86c-.261-.079-.34-.314-.366-.602 0 .288.105.523.367.602m-.362-.772c-.026-.21-.026-.419-.026-.628 0 .21 0 .419.026.628m-1.076-4.353v-.052c-.55-7.854-1.178-15.734-1.493-23.614.315 7.88.943 15.734 1.493 23.614zm88.357 28.755c-1.435 0-2.871-.025-4.308-.05 1.437.025 2.873.05 4.309.05m-136.421-270.674 41.56-12.696c-4.373-7.368-8.666-14.71-12.88-22l-28.653 8.747-7.9 2.412c2.28 7.873 4.825 15.877 7.873 23.537m-10.9099998-34.634 20.5799998-6.293 13.145-4.01a-2009.726 2009.726 0 0 1 -12.454-22.146l-26.2099998 8.02a-244.075 244.075 0 0 0 4.94 24.43" fill="#f3a03a"/><path d="m.91292018 130.513c-.824-8.529-1.116-17.138-.77-25.693-.346 8.555-.054 17.164.77 25.693m1.48800002-.452 20.4859998-6.244zm-1.83300002-25.374 10.22999982-3.109v-.026z" fill="#f3a03a"/><path d="m.91292018 130.513 1.48800002-.452 20.4859998-6.244a-3026.511 3026.511 0 0 1 -12.09-22.265v.026l-10.22999982 3.109-.424.133c-.346 8.555-.054 17.164.77 25.693" fill="#f3a03a"/><g transform="matrix(-1 0 0 1 393.48292 0)" fill="#f3a03a"><path d="m243.163 471.805v-20.38h-21.58v19.738a224.49 224.49 0 0 1 -7.805-.76 216.305 216.305 0 0 1 -29.227-5.48c-.262-.08-.55-.147-.838-.226-.707-.186-1.388-.374-2.095-.573-.603-.173-1.205-.346-1.807-.521a60.044 60.044 0 0 1 -1.126-.333c-.315-.092-.629-.2-.97-.293a13.683 13.683 0 0 1 -.261-.095 139.178 139.178 0 0 1 -4.138-1.375c-.314-.104-.629-.235-.943-.34-.89-.34-1.807-.681-2.697-1.021-.131-.053-.262-.131-.393-.184-.236-.105-.472-.183-.707-.288a16.562 16.562 0 0 1 -1.205-.497c-.026 0-.052-.027-.105-.053-.13-.052-.314-.13-.471-.183a82.9 82.9 0 0 1 -2.226-.995c67.28-10.24 124.24-61.361 166.981-115.573-.026.367-.026.734-.052 1.1-.603 13.069-1.074 26.137-1.52 39.231-.392 12.23-.785 24.487-1.256 36.718-.315 7.882-.97 15.765-1.493 23.622v.052c-.052.603-.052 1.258-.183 1.86-.131.628-.34 1.23-.89 1.728v.76s0 .052-.027.052a.24.24 0 0 1 .026.131c-.026.262-.105.498-.366.603-.053 0-.131.026-.21.026-.864 2.095-2.383 3.561-4.085 4.819-1.048.759-2.174 1.44-3.274 2.12-7.516 4.767-15.74 7.82-24.251 9.981-1.571.401-3.143.76-4.74 1.108-15.373 3.332-30.72 5.228-46.067 5.52"/><path d="m238.643 472c-5 0-11.516-.23-17.261-.692v-19.898h22v20.39c-1.437.025-2.873.05-4.309.05"/></g></svg>